<?xml version="1.0" encoding="utf-8"?>
<!-- Generator: Adobe Illustrator 19.1.0, SVG Export Plug-In . SVG Version: 6.00 Build 0)  -->
<svg version="1.1" id="Layer_1" xmlns="http://www.w3.org/2000/svg" xmlns:xlink="http://www.w3.org/1999/xlink" x="0px" y="0px"
	 viewBox="-297 383 16 28" style="enable-background:new -297 383 16 28;" xml:space="preserve">
<style type="text/css">
	.st0{fill:#FFFFFF;}
</style>
<path class="st0" d="M-281,400c0,0.3-0.1,0.5-0.3,0.7l-7,7c-0.2,0.2-0.4,0.3-0.7,0.3s-0.5-0.1-0.7-0.3l-7-7
	c-0.2-0.2-0.3-0.4-0.3-0.7s0.1-0.5,0.3-0.7s0.4-0.3,0.7-0.3h14c0.3,0,0.5,0.1,0.7,0.3S-281,399.7-281,400z M-281,394
	c0,0.3-0.1,0.5-0.3,0.7s-0.4,0.3-0.7,0.3h-14c-0.3,0-0.5-0.1-0.7-0.3s-0.3-0.4-0.3-0.7s0.1-0.5,0.3-0.7l7-7c0.2-0.2,0.4-0.3,0.7-0.3
	s0.5,0.1,0.7,0.3l7,7C-281.1,393.5-281,393.7-281,394z"/>
</svg>
