<?xml version="1.0" encoding="utf-8"?>
<!-- Generator: Adobe Illustrator 17.0.2, SVG Export Plug-In . SVG Version: 6.00 Build 0)  -->
<!DOCTYPE svg PUBLIC "-//W3C//DTD SVG 1.1//EN" "http://www.w3.org/Graphics/SVG/1.1/DTD/svg11.dtd">
<svg version="1.1" id="controls.fw-Page_x25_201" xmlns="http://www.w3.org/2000/svg" xmlns:xlink="http://www.w3.org/1999/xlink"
	 x="0px" y="0px" width="124.627px" height="82.609px" viewBox="-51.027 -32.349 124.627 82.609"
	 enable-background="new -51.027 -32.349 124.627 82.609" xml:space="preserve">
<path fill="none" d="z"/>
<g id="BG">
</g>
<g id="loop">
	<g id="on2">
		<path fill="#262626" d="M61.194-25.844c4.191,1.987,7.096,6.25,7.096,11.196c0,6.844-5.548,12.391-12.391,12.391
			S43.507-7.804,43.507-14.647c0-4.947,2.905-9.209,7.096-11.196l-3.924-3.924c-5.089,3.109-8.482,8.72-8.482,15.12
			c0,9.777,7.925,17.702,17.702,17.702S73.6-4.871,73.6-14.647c0-6.4-3.393-12.011-8.482-15.12L61.194-25.844z"/>
		<path fill="#262626" d="M52.948-32.349H38.196l14.752,14.752V-32.349z"/>
	</g>
	<g id="off2">
		<path fill="#262626" d="M61.194,21.361c4.191,1.987,7.096,6.25,7.096,11.196c0,6.844-5.548,12.391-12.391,12.391
			s-12.391-5.548-12.391-12.391c0-4.947,2.905-9.209,7.096-11.196l-3.924-3.924c-5.089,3.109-8.482,8.72-8.482,15.12
			c0,9.777,7.925,17.702,17.702,17.702S73.6,42.335,73.6,32.558c0-6.4-3.393-12.011-8.482-15.12L61.194,21.361z"/>
		<path fill="#262626" d="M52.948,14.856H38.196l14.752,14.752V14.856z"/>
	</g>
</g>
<g id="play_x2F_pause">
	<g id="play">
		<path id="Polygon" fill="#262626" d="M-18.573-15.754L-51.027,0.473V-31.98L-18.573-15.754z"/>
	</g>
	<rect x="-50.94" y="12.274" fill="#262626" width="10" height="35.404"/>
	<rect x="-30.949" y="12.274" fill="#262626" width="10" height="35.404"/>
</g>
<path fill="none" d="z"/>
<path fill="#262626" d="M20.368,44.991c-0.404,0-0.809-0.154-1.117-0.463c-0.617-0.617-0.617-1.618,0-2.235
	c2.885-2.885,4.474-6.721,4.474-10.802c0-4.08-1.589-7.916-4.474-10.802c-0.617-0.617-0.617-1.618,0-2.235s1.618-0.617,2.235,0
	c3.482,3.482,5.4,8.112,5.4,13.036c0,4.924-1.918,9.554-5.4,13.036C21.177,44.836,20.772,44.991,20.368,44.991z M14.755,42.011
	c-0.404,0-0.809-0.154-1.117-0.463c-0.617-0.617-0.617-1.618,0-2.235c4.313-4.313,4.313-11.331,0-15.644
	c-0.617-0.617-0.617-1.618,0-2.235c0.617-0.617,1.618-0.617,2.235,0c2.686,2.686,4.166,6.258,4.166,10.057
	c0,3.799-1.479,7.37-4.166,10.057C15.563,41.857,15.159,42.011,14.755,42.011L14.755,42.011z M9.141,39.031
	c-0.404,0-0.809-0.154-1.117-0.463c-0.617-0.617-0.617-1.618,0-2.235c2.67-2.67,2.67-7.014,0-9.684
	c-0.617-0.617-0.617-1.618,0-2.235c0.617-0.617,1.618-0.617,2.235,0c3.902,3.902,3.902,10.252,0,14.154
	C9.95,38.877,9.545,39.031,9.141,39.031z M4.279,17.225c0.845-0.845,1.536-0.559,1.536,0.636v27.259
	c0,1.195-0.691,1.481-1.536,0.636l-7.945-7.945h-5.267V25.17h5.267L4.279,17.225z"/>
<path fill="#262626" d="M4.279-31.495c0.845-0.845,1.536-0.559,1.536,0.636v27.259c0,1.195-0.691,1.481-1.536,0.636l-7.945-7.945
	h-5.267V-23.55h5.267L4.279-31.495z M22.671-13.701v2.793h-2.793l-3.527-3.527l-3.527,3.527h-2.793v-2.793l3.527-3.527l-3.527-3.527
	v-2.793h2.793l3.527,3.527l3.527-3.527h2.793v2.793l-3.527,3.527L22.671-13.701z"/>
</svg>
