<?xml version="1.0" encoding="utf-8"?>
<!-- Generator: Adobe Illustrator 17.0.0, SVG Export Plug-In . SVG Version: 6.00 Build 0)  -->
<!DOCTYPE svg PUBLIC "-//W3C//DTD SVG 1.1//EN" "http://www.w3.org/Graphics/SVG/1.1/DTD/svg11.dtd">
<svg version="1.1" id="controls.fw-Page_x25_201" xmlns="http://www.w3.org/2000/svg" xmlns:xlink="http://www.w3.org/1999/xlink"
	 x="0px" y="0px" width="99.031px" height="68.5px" viewBox="-2.5 -14.423 99.031 68.5"
	 enable-background="new -2.5 -14.423 99.031 68.5" xml:space="preserve">
<path fill="none" d="z"/>
<g id="BG">
</g>
<g id="loop">
	<g id="on2">
		<path fill="#333333" d="M82.937-6.961c3.196,1.515,5.411,4.766,5.411,8.539c0,5.219-4.231,9.45-9.45,9.45
			c-5.219,0-9.45-4.231-9.45-9.45c0-3.772,2.215-7.023,5.411-8.539l-2.993-2.992c-3.881,2.371-6.469,6.65-6.469,11.531
			c0,7.456,6.044,13.5,13.5,13.5c7.456,0,13.5-6.044,13.5-13.5c0-4.881-2.588-9.16-6.469-11.531L82.937-6.961z"/>
		<path fill="#333333" d="M76.649-11.923h-11.25l11.25,11.25V-11.923z"/>
	</g>
	<g id="off2">
		<path fill="#333333" d="M82.937,25.046c3.196,1.515,5.411,4.766,5.411,8.539c0,5.219-4.231,9.45-9.45,9.45
			c-5.219,0-9.45-4.231-9.45-9.45c0-3.772,2.215-7.023,5.411-8.539l-2.993-2.993c-3.881,2.371-6.469,6.65-6.469,11.531
			c0,7.456,6.044,13.5,13.5,13.5c7.456,0,13.5-6.044,13.5-13.5c0-4.881-2.588-9.16-6.469-11.531L82.937,25.046z"/>
		<path fill="#333333" d="M76.649,20.085h-11.25l11.25,11.25V20.085z"/>
	</g>
</g>
<g id="play_x2F_pause">
	<g id="play">
		<path id="Polygon" fill="#333333" d="M27.384,1.577l-27,13.5v-27L27.384,1.577z"/>
	</g>
	<g id="pause">
		<rect x="2.634" y="20.085" fill="#333333" width="6.75" height="27"/>
		<rect x="18.384" y="20.085" fill="#333333" width="6.75" height="27"/>
	</g>
</g>
<path fill="none" d="z"/>
<path fill="#333333" d="M42.757-11.855c0.796-0.796,1.447-0.526,1.447,0.599V14.41c0,1.125-0.651,1.395-1.447,0.599l-7.481-7.481
	h-4.96V-4.374h4.96L42.757-11.855z M60.074,4.899v2.63h-2.63l-3.321-3.321l-3.321,3.321h-2.63v-2.63l3.321-3.321l-3.321-3.321v-2.63
	h2.63l3.321,3.321l3.321-3.321h2.63v2.63l-3.321,3.321L60.074,4.899z"/>
<path fill="#333333" d="M52.62,43.49c-0.381,0-0.762-0.145-1.052-0.436c-0.581-0.581-0.581-1.523,0-2.104
	c4.061-4.061,4.061-10.668,0-14.729c-0.581-0.581-0.581-1.523,0-2.104c0.581-0.581,1.523-0.581,2.104,0
	c2.529,2.529,3.922,5.892,3.922,9.469c0,3.577-1.393,6.94-3.922,9.469C53.382,43.344,53.001,43.49,52.62,43.49L52.62,43.49z
	 M47.335,40.684c-0.381,0-0.762-0.145-1.052-0.436c-0.581-0.581-0.581-1.523,0-2.104c2.514-2.514,2.514-6.604,0-9.118
	c-0.581-0.581-0.581-1.523,0-2.104c0.581-0.581,1.523-0.581,2.104,0c3.674,3.674,3.674,9.652,0,13.327
	C48.096,40.539,47.716,40.684,47.335,40.684z M42.757,20.153c0.796-0.796,1.447-0.526,1.447,0.599v25.666
	c0,1.125-0.651,1.395-1.447,0.599l-7.481-7.481h-4.96V27.633h4.96L42.757,20.153z"/>
</svg>
